<svg xmlns="http://www.w3.org/2000/svg" width="500" height="500" style="width:100%;height:100%;transform:translate3d(0,0,0)" viewBox="0 0 500 500"><defs><clipPath id="j"><path d="M0 0h500v500H0z"/></clipPath><clipPath id="o"><path d="M0 0h500v500H0z"/></clipPath><clipPath id="r"><path d="M0 0h500v500H0z"/></clipPath><clipPath id="m"><path d="M0 0h500v500H0z"/></clipPath><clipPath id="k"><path d="M0 0h500v500H0z"/></clipPath><clipPath id="i"><path d="M0 0h500v500H0z"/></clipPath><mask id="s"><path fill="#fff" d="M0 0h500v500H0z"/><path/></mask><mask id="q" mask-type="alpha"><g filter="url(#a)"><path fill="#fff" d="M0 0h500v500H0z" opacity="0"/><use xmlns:a0="http://www.w3.org/1999/xlink" a0:href="#b"/></g></mask><mask id="p" mask-type="alpha"><g filter="url(#c)"><path fill="#fff" d="M0 0h500v500H0z" opacity="0"/><use xmlns:a1="http://www.w3.org/1999/xlink" a1:href="#d"/></g></mask><mask id="n" mask-type="alpha"><g filter="url(#e)"><path fill="#fff" d="M0 0h500v500H0z" opacity="0"/><use xmlns:a2="http://www.w3.org/1999/xlink" a2:href="#f"/></g></mask><mask id="l" mask-type="alpha"><g filter="url(#g)"><path fill="#fff" d="M0 0h500v500H0z" opacity="0"/><use xmlns:a3="http://www.w3.org/1999/xlink" a3:href="#h"/></g></mask><filter id="a" width="100%" height="100%" x="0%" y="0%" filterUnits="objectBoundingBox"><feComponentTransfer in="SourceGraphic"><feFuncA tableValues="1.0 0.0" type="table"/></feComponentTransfer></filter><filter id="c" width="100%" height="100%" x="0%" y="0%" filterUnits="objectBoundingBox"><feComponentTransfer in="SourceGraphic"><feFuncA tableValues="1.0 0.0" type="table"/></feComponentTransfer></filter><filter id="e" width="100%" height="100%" x="0%" y="0%" filterUnits="objectBoundingBox"><feComponentTransfer in="SourceGraphic"><feFuncA tableValues="1.0 0.0" type="table"/></feComponentTransfer></filter><filter id="g" width="100%" height="100%" x="0%" y="0%" filterUnits="objectBoundingBox"><feComponentTransfer in="SourceGraphic"><feFuncA tableValues="1.0 0.0" type="table"/></feComponentTransfer></filter><g id="d" fill-opacity="0" stroke-linecap="round" stroke-linejoin="round" class="primary design" style="display:none"><path class="primary"/><path class="primary"/></g><g id="b" class="primary design" style="display:none"><path fill-opacity="0" stroke-linecap="round" stroke-linejoin="round" class="primary"/></g><g id="f" fill-opacity="0" stroke-linecap="round" stroke-linejoin="round" class="primary design" style="display:none"><path class="primary"/><path class="primary"/></g><g id="h" clip-path="url(#i)" style="display:none"><g class="primary design" style="display:none"><path fill-opacity="0" stroke-linecap="round" stroke-linejoin="round" class="primary"/></g><g fill-opacity="0" stroke-linecap="round" stroke-linejoin="round" class="primary design" style="display:none"><path class="primary"/><path class="primary"/></g></g></defs><g clip-path="url(#j)"><g clip-path="url(#k)" style="display:none"><g class="primary design" style="display:none"><path class="primary"/></g><g class="primary design" style="display:none"><path class="primary"/></g><g class="primary design" mask="url(#l)" style="display:none"><path class="primary"/></g></g><g clip-path="url(#m)" style="display:block"><g class="primary design" mask="url(#n)" style="display:none"><path class="primary"/></g><g class="primary design" style="display:block"><path fill="#109173" d="M270.828 203.178c-8.54 0-15.622-7.083-15.622-15.623V41.745H124.393c-22.705 0-41.035 18.33-41.035 41.035v334.322c0 22.704 18.33 41.243 41.035 41.243h251.21c22.705 0 41.035-18.539 41.035-41.243V203.178h-145.81zm41.66 171.847h-124.98c-11.456 0-20.83-9.373-20.83-20.83 0-11.456 9.374-20.83 20.83-20.83h124.98c11.457 0 20.83 9.374 20.83 20.83 0 11.457-9.373 20.83-20.83 20.83zm0-83.32h-124.98c-11.456 0-20.83-9.373-20.83-20.83 0-11.456 9.374-20.83 20.83-20.83h124.98c11.457 0 20.83 9.374 20.83 20.83 0 11.457-9.373 20.83-20.83 20.83zM417.596 172.12 287.617 42.14l-.208 130.23 130.187-.25z" class="primary"/></g><g class="primary design" style="display:none"><path class="primary"/></g></g><g clip-path="url(#o)" style="display:none"><g mask="url(#p)"><g mask="url(#q)" style="display:none"><g class="primary design" clip-path="url(#r)" mask="url(#s)" style="display:none"><path class="primary"/><path fill="none" class="primary"/></g></g></g><g class="primary design" style="display:none"><path class="primary"/></g></g></g></svg>