<svg width="64" height="64" viewBox="0 0 64 64" fill="none" xmlns="http://www.w3.org/2000/svg">
<path fill-rule="evenodd" clip-rule="evenodd" d="M56.68 14.1L35.27 1.87C33.24 0.71 30.76 0.71 28.73 1.87L7.32 14.1C5.27 15.27 4 17.46 4 19.82V44.17C4 46.54 5.27 48.72 7.32 49.9L28.73 62.13C30.76 63.29 33.24 63.29 35.27 62.13L56.68 49.9C58.73 48.73 60 46.54 60 44.17V19.82C60 17.45 58.73 15.27 56.68 14.1ZM8.31507 48.1651C6.8826 47.3393 6 45.8188 6 44.17V19.82C6 18.1772 6.88582 16.6506 8.31137 15.837L29.722 3.60664C31.1371 2.79799 32.8626 2.79784 34.2777 3.60649L55.688 15.8366C57.115 16.6511 58 18.1689 58 19.82V44.17C58 45.8245 57.1127 47.3502 55.6886 48.163L34.278 60.3934C32.8629 61.202 31.1374 61.2022 29.7223 60.3935L8.31774 48.1666C8.31685 48.1661 8.31596 48.1656 8.31507 48.1651Z" fill="#00A88E"/>
<path fill-rule="evenodd" clip-rule="evenodd" d="M31.5 22.8857L25 26.6V34.4C25 34.758 25.0374 35.1027 25.1067 35.4341L17 40.136V23.4L31.5 15.1833V22.8857ZM32.5 22.8857L39 26.6V34.4C39 34.7348 38.9686 35.0575 38.91 35.3682L47 40.0391V23.5L32.5 15.1866V22.8857ZM38.6213 36.3562C37.1641 40.0032 32 41.7 32 41.7C32 41.7 26.9446 39.9667 25.4262 36.4388L17.6295 40.9609L32 49.2L46.484 40.8958L38.6213 36.3562ZM15 22.3L32 12.6L49 22.3V41.7L32 51.4L15 41.7V22.3ZM34.3 29.5L31.2 32.7L30.1 31.6L29.4 32.3L30.5 33.4L31.2 34.1L31.9 33.4L35 30.2L34.3 29.5ZM37 27.7L32 24.9L27 27.7V34.3C27 36.8 30.2 38.6 32 39.4C33.5 38.8 37 37 37 34.3V27.7Z" fill="#575756"/>
</svg>
