<svg width="64" height="64" viewBox="0 0 64 64" fill="none" xmlns="http://www.w3.org/2000/svg">
<path fill-rule="evenodd" clip-rule="evenodd" d="M56.68 14.1L35.27 1.87C33.24 0.71 30.76 0.71 28.73 1.87L7.32 14.1C5.27 15.27 4 17.46 4 19.82V44.17C4 46.54 5.27 48.72 7.32 49.9L28.73 62.13C30.76 63.29 33.24 63.29 35.27 62.13L56.68 49.9C58.73 48.73 60 46.54 60 44.17V19.82C60 17.45 58.73 15.27 56.68 14.1ZM8.31507 48.1651C6.8826 47.3393 6 45.8188 6 44.17V19.82C6 18.1772 6.88582 16.6506 8.31137 15.837L29.722 3.60664C31.1371 2.79799 32.8626 2.79784 34.2777 3.60649L55.688 15.8366C57.115 16.6511 58 18.1689 58 19.82V44.17C58 45.8245 57.1127 47.3502 55.6886 48.163L34.278 60.3934C32.8629 61.202 31.1374 61.2022 29.7223 60.3935L8.31774 48.1666C8.31685 48.1661 8.31596 48.1656 8.31507 48.1651Z" fill="#00A88E"/>
<path fill-rule="evenodd" clip-rule="evenodd" d="M25.28 24.57L24.57 25.28L21.27 21.98H17.98V17.98H21.98V21.27L25.28 24.57ZM18.99 20.97H20.97V18.99H18.99V20.97ZM38.72 24.57L39.43 25.28L43.01 21.7C43.78 22.15 44.78 22.05 45.43 21.4C46.21 20.62 46.21 19.35 45.43 18.57C44.65 17.79 43.38 17.79 42.6 18.57C41.94 19.23 41.84 20.23 42.3 21L38.72 24.57ZM43.31 19.27C43.7 18.88 44.33 18.88 44.72 19.27C45.11 19.66 45.11 20.29 44.72 20.68C44.33 21.07 43.7 21.07 43.31 20.68C42.92 20.3 42.92 19.66 43.31 19.27ZM40 33.54V30.46H37.95C37.8 29.9 37.58 29.37 37.29 28.88L38.74 27.43L36.56 25.25L35.11 26.7C34.62 26.41 34.09 26.19 33.53 26.04V24H30.45V26.05C29.89 26.2 29.36 26.42 28.87 26.71L27.42 25.26L25.24 27.44L26.69 28.89C26.4 29.38 26.18 29.91 26.03 30.47H24V33.55H26.05C26.2 34.11 26.42 34.64 26.71 35.13L25.26 36.58L27.44 38.75L28.89 37.3C29.38 37.59 29.91 37.81 30.47 37.95V40H33.55V37.95C34.11 37.81 34.64 37.58 35.13 37.3L36.58 38.75L38.76 36.58L37.31 35.13C37.6 34.64 37.82 34.11 37.97 33.55H40V33.54ZM32 35.21C30.22 35.21 28.78 33.77 28.78 32C28.78 30.23 30.22 28.79 32 28.79C33.78 28.79 35.21 30.23 35.21 32C35.21 33.77 33.78 35.21 32 35.21ZM39.43 38.72L38.72 39.43L42.02 42.73V46.02H46.02V42.02H42.73L39.43 38.72ZM47.07 31.5C47.29 30.64 48.07 30 49 30C50.1 30 51 30.9 51 32C51 33.1 50.1 34 49 34C48.07 34 47.29 33.36 47.07 32.5H42.01V31.5H47.07ZM48.01 32C48.01 32.55 48.45 32.99 49 32.99C49.55 32.99 49.99 32.55 49.99 32C49.99 31.45 49.55 31.01 49 31.01C48.45 31.01 48.01 31.45 48.01 32ZM21.99 31.5H16.93C16.71 30.64 15.93 30 15 30C13.9 30 13 30.9 13 32C13 33.1 13.9 34 15 34C15.93 34 16.71 33.36 16.93 32.5H21.99V31.5ZM24.5701 38.72L25.2801 39.43L21.7001 43C22.1501 43.77 22.0601 44.77 21.4001 45.43C20.6201 46.21 19.3501 46.21 18.5701 45.43C17.7901 44.65 17.7901 43.38 18.5701 42.6C19.2201 41.95 20.2201 41.85 20.9901 42.3L24.5701 38.72ZM19.2801 44.73C19.6701 45.12 20.3001 45.12 20.6901 44.73C21.0801 44.34 21.0801 43.7 20.6901 43.32C20.3001 42.93 19.6701 42.93 19.2801 43.32C18.8901 43.71 18.8901 44.34 19.2801 44.73Z" fill="#575756"/>
</svg>
