<svg width="700" height="700" viewBox="0 0 700 700" fill="none" xmlns="http://www.w3.org/2000/svg">
<path d="M650 123.433V229C650 222 647.7 215.199 643.501 209.599C639.202 203.998 633.303 199.998 626.504 197.998L368.447 123.193C356.349 119.692 343.551 119.692 331.553 123.193L73.4961 197.998C66.6972 199.898 60.6982 203.998 56.4989 209.599C52.2996 215.199 50 222 50 229V123.433C50 116.432 52.2996 109.632 56.4989 104.031C60.6982 98.4308 66.6972 94.3306 73.4961 92.4304L331.553 17.6252C343.551 14.1249 356.349 14.1249 368.447 17.6252L626.504 92.4304C633.303 94.4306 639.202 98.4308 643.501 104.031C647.7 109.632 650 116.432 650 123.433Z" fill="#69B42E"/>
<path d="M650 173.813V229C650 221.975 647.7 215.151 643.501 209.531C639.202 203.911 633.303 199.896 626.504 197.889L368.447 122.821C356.349 119.309 343.551 119.309 331.553 122.821L73.4961 197.889C66.6972 199.796 60.6982 203.911 56.4989 209.531C52.2996 215.151 50 221.975 50 229V173.813C50 166.788 52.2996 159.964 56.4989 154.344C60.6982 148.724 66.6972 144.609 73.4961 142.702L331.553 67.6344C343.551 64.1219 356.349 64.1219 368.447 67.6344L626.504 142.702C633.303 144.709 639.202 148.724 643.501 154.344C647.7 159.974 650 166.788 650 173.813Z" fill="#69B42E"/>
<path d="M650 123.421V296.614C649.9 487.007 523.821 650.401 349.95 685C176.079 650.211 50 486.907 50 296.614V123.421C50 116.421 52.2996 109.621 56.4989 104.022C60.6982 98.4219 66.6972 94.322 73.4961 92.4221L331.553 17.6249C343.551 14.125 356.349 14.125 368.447 17.6249L626.504 92.4221C633.303 94.422 639.202 98.4219 643.501 104.022C647.7 109.621 650 116.421 650 123.421Z" fill="#69B42E"/>
<path d="M650 123.421V296.614C649.9 487.007 523.821 650.401 349.95 685C176.079 650.211 50 486.907 50 296.614V123.421C50 116.421 52.2996 109.621 56.4989 104.022C60.6982 98.4219 66.6972 94.322 73.4961 92.4221L331.553 17.6249C343.551 14.125 356.349 14.125 368.447 17.6249L626.504 92.4221C633.303 94.422 639.202 98.4219 643.501 104.022C647.7 109.621 650 116.421 650 123.421Z" fill="white" fill-opacity="0.35"/>
<path d="M650 173.52V296.258C649.9 486.826 523.821 650.37 349.95 685C176.079 650.179 50 486.726 50 296.258V173.52C50 166.514 52.2996 159.708 56.4989 154.103C60.6982 148.498 66.6972 144.395 73.4961 142.493L331.553 67.6273C343.551 64.1242 356.349 64.1242 368.447 67.6273L626.504 142.493C633.303 144.495 639.202 148.498 643.501 154.103C647.7 159.718 650 166.514 650 173.52Z" fill="#69B42E"/>
<path d="M650 173.52V296.258C649.9 486.826 523.821 650.37 349.95 685C176.079 650.179 50 486.726 50 296.258V173.52C50 166.514 52.2996 159.708 56.4989 154.103C60.6982 148.498 66.6972 144.395 73.4961 142.493L331.553 67.6273C343.551 64.1242 356.349 64.1242 368.447 67.6273L626.504 142.493C633.303 144.495 639.202 148.498 643.501 154.103C647.7 159.718 650 166.514 650 173.52Z" fill="white" fill-opacity="0.15"/>
<path d="M650 228.528V296.232C649.9 486.812 523.821 650.367 349.95 685C176.079 650.177 50 486.712 50 296.232V228.528C50 221.521 52.2996 214.715 56.4989 209.109C60.6982 203.504 66.6972 199.4 73.4961 197.498L331.553 122.627C343.551 119.124 356.349 119.124 368.447 122.627L626.504 197.498C633.303 199.5 639.202 203.504 643.501 209.109C647.7 214.715 650 221.521 650 228.528Z" fill="#69B42E"/>
<path fill-rule="evenodd" clip-rule="evenodd" d="M350 15C343.95 15.05 337.91 15.9201 332.07 17.6203L73.5392 92.4381C66.7279 94.3383 60.7179 98.4387 56.5109 104.039C52.3038 109.64 50 116.441 50 123.441V296.659C50 486.799 176.07 649.986 350 685V15Z" fill="white" fill-opacity="0.15"/>
</svg>
