<svg width="700" height="700" viewBox="0 0 700 700" fill="none" xmlns="http://www.w3.org/2000/svg">
<path d="M349.95 685C176.079 650.201 50 486.907 50 296.614V123.421C50 116.421 52.2996 109.621 56.4989 104.022C60.6982 98.4219 66.6972 94.322 73.4961 92.4221L331.553 17.6249C343.551 14.125 356.349 14.125 368.447 17.6249L626.504 92.4221C633.303 94.422 639.202 98.4219 643.501 104.022C647.7 109.621 650 116.421 650 123.421V296.614C649.9 487.007 523.821 650.401 349.95 685Z" fill="#69B42E"/>
<path fill-rule="evenodd" clip-rule="evenodd" d="M349.45 15.002C343.41 15.0487 337.387 15.923 331.553 17.6249L73.4961 92.4221C66.6972 94.322 60.6982 98.4219 56.4989 104.022C52.2996 109.621 50 116.421 50 123.421V296.614C50 486.725 175.837 649.888 349.45 684.9V15.002Z" fill="white" fill-opacity="0.15"/>
<path d="M232.734 248.877C232.734 242.249 238.107 236.877 244.734 236.877H460.734C467.362 236.877 472.734 242.249 472.734 248.877V390.877H232.734V248.877Z" fill="white" fill-opacity="0.35"/>
<path fill-rule="evenodd" clip-rule="evenodd" d="M483.892 247.288V389.268H504C507.314 389.268 510 391.954 510 395.268V409C510 412.314 507.314 415 504 415H196C192.686 415 190 412.314 190 409V395.268C190 391.954 192.686 389.268 196 389.268H220.734V247.288C220.734 234.979 230.817 225 243.254 225H461.372C473.81 225 483.892 234.979 483.892 247.288ZM471.892 247.288V389.268H232.734V247.288C232.734 241.538 237.444 236.877 243.254 236.877H461.372C467.182 236.877 471.892 241.538 471.892 247.288ZM383 407.082C386.314 407.082 389 404.396 389 401.082V397.185L311 397.185V401.082C311 404.396 313.686 407.082 317 407.082H383Z" fill="white"/>
</svg>
