<?xml version="1.0" encoding="UTF-8" standalone="no"?>
<svg
   width="506"
   height="433"
   viewBox="0 0 506 433"
   fill="none"
   version="1.1"
   id="svg25"
   sodipodi:docname="DrWeb1.svg"
   inkscape:version="1.1.2 (0a00cf5339, 2022-02-04)"
   xmlns:inkscape="http://www.inkscape.org/namespaces/inkscape"
   xmlns:sodipodi="http://sodipodi.sourceforge.net/DTD/sodipodi-0.dtd"
   xmlns="http://www.w3.org/2000/svg"
   xmlns:svg="http://www.w3.org/2000/svg">
  <sodipodi:namedview
     id="namedview27"
     pagecolor="#ffffff"
     bordercolor="#666666"
     borderopacity="1.0"
     inkscape:pageshadow="2"
     inkscape:pageopacity="0.0"
     inkscape:pagecheckerboard="0"
     showgrid="false"
     width="574px"
     inkscape:zoom="0.66954684"
     inkscape:cx="881.19302"
     inkscape:cy="179.2257"
     inkscape:window-width="1904"
     inkscape:window-height="1029"
     inkscape:window-x="1374"
     inkscape:window-y="43"
     inkscape:window-maximized="0"
     inkscape:current-layer="svg25" />
  <path
     d="m 251.68062,84.2613 77.76284,49.5757 c 1.9474,-6.028 2.94606,-12.402 2.94869,-18.826 0,-38.9077 -35.98353,-70.4558 -80.31206,-70.4558 -44.42928,0 -80.362,31.5481 -80.362,70.5128 0,6.332 0.99954,12.551 2.74896,18.37 z m 135.08542,143.5357 62.22043,42.786 -116.59432,161.449 z m 3.2483,-41.19 -6.9968,-35.427 119.89342,40.333 -74.31481,45.411 10.19516,-36.91 z m -13.94367,-58.361 -15.842,-24.987 106.29929,-38.7937 -26.48744,95.4997 -10.8951,-43.927 z M 346.83515,83.862 324.49568,56.9919 353.78201,22.7625 321.74672,0 h 84.95936 z M 116.14492,227.797 53.924315,270.583 170.51881,432.032 Z m -3.29823,-41.19 6.99593,-35.427 L 0,191.513 74.364655,236.924 64.119475,200.014 Z M 126.83941,128.246 142.6823,103.259 36.382737,64.4653 62.87009,159.965 73.764929,116.038 Z M 156.12575,83.862 178.41529,56.9919 149.12895,22.7625 181.21418,0 H 96.15407 Z"
     fill="url(#paint0_linear_259_154)"
     id="path2"
     style="fill:url(#paint0_linear_259_154);stroke-width:0.935961" />
  <path
     d="m 221.04521,184.04 14.39306,-48.606 h 33.03396 l 15.19288,48.606 h 0.50021 l 8.8452,-44.783 -41.52963,-26.985 -41.38072,26.813 10.44483,44.955 z"
     fill="url(#paint1_linear_259_154)"
     id="path4"
     style="fill:url(#paint1_linear_259_154);stroke-width:0.935961" />
  <path
     d="m 364.07704,185.523 -43.32899,-28.182 -15.64315,54.082 h -38.68168 l -14.69267,-49.632 h -0.50021 l -14.69266,49.632 h -38.88142 l -15.64227,-54.082 -43.32986,28.182 c 0,0 -15.79208,63.781 44.4792,116.209 21.08939,18.37 36.8324,30.293 50.9758,35.827 l -2.59916,-9.128 h 39.78109 l -2.69903,9.242 c 14.1434,-5.363 29.83648,-17.343 50.826,-35.941 59.77195,-52.941 44.62901,-116.209 44.62901,-116.209 z m -88.2576,127.334 h -48.77698 l -5.29731,-18.199 h 59.32167 z m 9.74488,-33.773 H 217.2967 l -5.29731,-18.256 h 78.86225 z m 9.7957,-33.773 h -87.90807 l -5.29818,-18.256 h 98.45363 z"
     fill="url(#paint2_linear_259_154)"
     id="path6"
     style="fill:url(#paint2_linear_259_154);stroke-width:0.935961" />
  <defs
     id="defs23">
    <linearGradient
       id="paint0_linear_259_154"
       x1="170.5"
       y1="471"
       x2="531.5"
       y2="-83.5"
       gradientUnits="userSpaceOnUse"
       gradientTransform="scale(0.8760233,1)">
      <stop
         stop-color="#73B419"
         id="stop8" />
      <stop
         offset="1"
         stop-color="#C3DF9B"
         id="stop10" />
    </linearGradient>
    <linearGradient
       id="paint1_linear_259_154"
       x1="267.94299"
       y1="190.513"
       x2="328.09399"
       y2="98.818802"
       gradientUnits="userSpaceOnUse"
       gradientTransform="scale(0.8760233,1)">
      <stop
         stop-color="#73B419"
         id="stop13" />
      <stop
         offset="1"
         stop-color="#C3DF9B"
         id="stop15" />
    </linearGradient>
    <linearGradient
       id="paint2_linear_259_154"
       x1="233.80701"
       y1="353.93799"
       x2="378.83701"
       y2="110.949"
       gradientUnits="userSpaceOnUse"
       gradientTransform="scale(0.8760233,1)">
      <stop
         stop-color="#73B419"
         id="stop18" />
      <stop
         offset="1"
         stop-color="#C3DF9B"
         id="stop20" />
    </linearGradient>
  </defs>
</svg>
