<svg width="64" height="64" viewBox="0 0 64 64" fill="none" xmlns="http://www.w3.org/2000/svg">
<path fill-rule="evenodd" clip-rule="evenodd" d="M56.68 14.1L35.27 1.87C33.24 0.71 30.76 0.71 28.73 1.87L7.32 14.1C5.27 15.27 4 17.46 4 19.82V44.17C4 46.54 5.27 48.72 7.32 49.9L28.73 62.13C30.76 63.29 33.24 63.29 35.27 62.13L56.68 49.9C58.73 48.73 60 46.54 60 44.17V19.82C60 17.45 58.73 15.27 56.68 14.1ZM8.31507 48.1651C6.8826 47.3393 6 45.8188 6 44.17V19.82C6 18.1772 6.88582 16.6506 8.31137 15.837L29.722 3.60664C31.1371 2.79799 32.8626 2.79784 34.2777 3.60649L55.688 15.8366C57.115 16.6511 58 18.1689 58 19.82V44.17C58 45.8245 57.1127 47.3502 55.6886 48.163L34.278 60.3934C32.8629 61.202 31.1374 61.2022 29.7223 60.3935L8.31774 48.1666C8.31685 48.1661 8.31596 48.1656 8.31507 48.1651Z" fill="#00A88E"/>
<path fill-rule="evenodd" clip-rule="evenodd" d="M16 21V43H32V41H19.7051L27.6 34.7L25.9 33.4L18 39.6542V24.3535L32 35.5L46 24.3536V36.3V41V43H48V21H16ZM32 32.7L19.7248 23H44.2753L32 32.7ZM34 37.5L39 34.7L44 37.5V43.5C44 46.1 40.8 47.8 39.4 48.4L39 48.5999L38.6 48.4C37.5 47.9 34 46.2 34 43.5V37.5ZM36.4 41.4L38.4 43.4L41.9 39.9L41.2 39.2L38.4 42L37.1 40.7L36.4 41.4Z" fill="#575756"/>
</svg>
