<svg width="128" height="128" viewBox="0 0 128 128" fill="none" xmlns="http://www.w3.org/2000/svg">
<path fill-rule="evenodd" clip-rule="evenodd" d="M113.36 28.2L70.54 3.74C66.48 1.42 61.52 1.42 57.46 3.74L14.64 28.2C10.54 30.54 8 34.92 8 39.64V88.34C8 93.08 10.54 97.44 14.64 99.8L57.46 124.26C61.52 126.58 66.48 126.58 70.54 124.26L113.36 99.8C117.46 97.46 120 93.08 120 88.34V39.64C120 34.9 117.46 30.54 113.36 28.2ZM16.6301 96.3302C13.7652 94.6786 12 91.6376 12 88.34V39.64C12 36.3544 13.7716 33.3012 16.6227 31.674L59.444 7.21327C62.2743 5.59598 65.7252 5.59568 68.5554 7.21297L111.376 31.6733C114.23 33.3022 116 36.3377 116 39.64V88.34C116 91.649 114.225 94.7005 111.377 96.326L68.556 120.787C65.7257 122.404 62.2748 122.404 59.4446 120.787L16.6355 96.3333C16.6337 96.3323 16.6319 96.3312 16.6301 96.3302Z" fill="#00A88E"/>
<path fill-rule="evenodd" clip-rule="evenodd" d="M88 86H96C98.2 86 100 84.2 100 82V46C100 43.8 98.2 42 96 42H88V46H96V82H88V86ZM88 80H92C93.1 80 94 79.1 94 78C94 76.9 93.1 76 92 76H88V80ZM40 42H32C29.8 42 28 43.8 28 46V82C28 84.2 29.8 86 32 86H40V82H32V46H40V42ZM40 76H36C34.9 76 34 76.9 34 78C34 79.1 34.9 80 36 80H40V76Z" fill="#575756"/>
<path d="M80 96H48C45.8 96 44 94.2 44 92V36C44 33.8 45.8 32 48 32H80C82.2 32 84 33.8 84 36V92C84 94.2 82.2 96 80 96ZM48 36V92H80V36H48Z" fill="#575756"/>
<path d="M64 76.8595L63.26 76.5595C63.04 76.4595 62.76 76.3595 62.44 76.2195C61.2 75.6595 60.04 75.0195 59 74.3195C54.86 71.5395 54 68.6195 54 66.6795V55.6795L64 50.0195L74 55.5195V66.6795C74 68.6195 73.14 71.5395 69 74.3195C67.96 75.0195 66.82 75.6595 65.56 76.2195C65.26 76.3595 64.98 76.4795 64.74 76.5595L64 76.8595ZM58 57.9995V66.6595C58 68.4395 59.76 69.9995 61.24 70.9995C62.26 71.6795 63.28 72.1995 64 72.5195C64.72 72.1995 65.76 71.6795 66.76 70.9995C68.24 69.9995 70 68.4395 70 66.6595V57.8595L64.02 54.5795L58 57.9995Z" fill="#575756"/>
<path d="M64 42C65.1046 42 66 41.1046 66 40C66 38.8954 65.1046 38 64 38C62.8954 38 62 38.8954 62 40C62 41.1046 62.8954 42 64 42Z" fill="#575756"/>
<path d="M50 88C50 86.9 50.9 86 52 86H56C57.1 86 58 86.9 58 88C58 89.1 57.1 90 56 90H52C50.9 90 50 89.1 50 88Z" fill="#575756"/>
<path d="M60 88C60 86.9 60.9 86 62 86H66C67.1 86 68 86.9 68 88C68 89.1 67.1 90 66 90H62C60.9 90 60 89.1 60 88Z" fill="#575756"/>
<path d="M70 88C70 86.9 70.9 86 72 86H76C77.1 86 78 86.9 78 88C78 89.1 77.1 90 76 90H72C70.9 90 70 89.1 70 88Z" fill="#575756"/>
</svg>
