<svg width="64" height="64" viewBox="0 0 64 64" fill="none" xmlns="http://www.w3.org/2000/svg">
<path fill-rule="evenodd" clip-rule="evenodd" d="M56.68 14.1L35.27 1.87C33.24 0.71 30.76 0.71 28.73 1.87L7.32 14.1C5.27 15.27 4 17.46 4 19.82V44.17C4 46.54 5.27 48.72 7.32 49.9L28.73 62.13C30.76 63.29 33.24 63.29 35.27 62.13L56.68 49.9C58.73 48.73 60 46.54 60 44.17V19.82C60 17.45 58.73 15.27 56.68 14.1ZM8.31507 48.1651C6.8826 47.3393 6 45.8188 6 44.17V19.82C6 18.1772 6.88582 16.6506 8.31137 15.837L29.722 3.60664C31.1371 2.79799 32.8626 2.79784 34.2777 3.60649L55.688 15.8366C57.115 16.6511 58 18.1689 58 19.82V44.17C58 45.8245 57.1127 47.3502 55.6886 48.163L34.278 60.3934C32.8629 61.202 31.1374 61.2022 29.7223 60.3935L8.31774 48.1666C8.31685 48.1661 8.31596 48.1656 8.31507 48.1651Z" fill="#00A88E"/>
<path fill-rule="evenodd" clip-rule="evenodd" d="M48 43V19H16V43H28V45H24V47H40V45H36V43H48ZM18 21H46V41H18V21ZM34.7499 27.75C34.7499 27.375 34.4499 27.075 34.0749 27.075C33.6999 27.075 33.3999 27.375 33.3999 27.75C33.3999 28.125 33.6999 28.4249 34.0749 28.4249C34.4499 28.4249 34.7499 28.125 34.7499 27.75ZM30.3751 25.975C31.1751 25.975 31.8501 26.525 32.0001 26.65C32.1501 26.525 32.8251 25.975 33.6251 25.975C37.3501 25.975 35.9751 30.35 34.8001 31.325C34.0001 31.975 34.6251 32.475 34.6251 32.475C36.2001 33.75 37.3251 36.175 37.5501 39.025H39.1001L39.1001 39.0248C39.0001 38.5749 38.9001 38.125 38.7751 37.725C39.0047 37.8049 39.2772 37.9097 39.5668 38.021C40.7279 38.4675 42.1651 39.0202 42.2251 38.5C42.306 37.7513 41.3223 36.9862 40.0959 36.0323C39.8072 35.8078 39.505 35.5728 39.2001 35.325C38.0751 34.4 37.3251 32.95 36.9751 32.175C36.4501 31 36.6251 29.325 36.6251 29.325C36.6251 29.325 36.6751 28.65 36.6751 28.275C36.6751 25.575 34.5751 23.4 32.0001 23.4C29.4501 23.4 27.3251 25.575 27.3251 28.275C27.3251 28.65 27.3751 29.325 27.3751 29.325C27.3751 29.325 27.5501 31 27.0251 32.175C26.6751 32.95 25.9251 34.4 24.8001 35.325C24.4739 35.5942 24.1488 35.8485 23.8392 36.0905C22.6539 37.0174 21.6958 37.7666 21.7751 38.5C21.8336 39.0068 23.2144 38.4801 24.3532 38.0457L24.3532 38.0457C24.6749 37.923 24.9773 37.8076 25.2251 37.725C25.1001 38.125 25.0001 38.575 24.9001 39.025H26.4501C26.6751 36.175 27.8001 33.75 29.3751 32.475C29.3751 32.475 30.0001 32 29.2001 31.325C28.0251 30.35 26.6501 25.975 30.3751 25.975ZM29.25 27.75C29.25 27.375 29.55 27.075 29.925 27.075C30.3 27.075 30.6 27.375 30.6 27.75C30.6 28.125 30.3 28.4249 29.925 28.4249C29.55 28.4249 29.25 28.125 29.25 27.75ZM30.425 29.625C30.425 29.675 31.225 31.375 32 31.375C32.775 31.375 33.5751 29.675 33.5751 29.625C32.975 29.525 32 28.7 32 28.7C32 28.7 31.025 29.525 30.425 29.625Z" fill="#575756"/>
</svg>
