<svg width="64" height="64" viewBox="0 0 64 64" fill="none" xmlns="http://www.w3.org/2000/svg">
<path fill-rule="evenodd" clip-rule="evenodd" d="M56.68 14.1L35.27 1.87C33.24 0.71 30.76 0.71 28.73 1.87L7.32 14.1C5.27 15.27 4 17.46 4 19.82V44.17C4 46.54 5.27 48.72 7.32 49.9L28.73 62.13C30.76 63.29 33.24 63.29 35.27 62.13L56.68 49.9C58.73 48.73 60 46.54 60 44.17V19.82C60 17.45 58.73 15.27 56.68 14.1ZM8.31507 48.1651C6.8826 47.3393 6 45.8188 6 44.17V19.82C6 18.1772 6.88582 16.6506 8.31137 15.837L29.722 3.60664C31.1371 2.79799 32.8626 2.79784 34.2777 3.60649L55.688 15.8366C57.115 16.6511 58 18.1689 58 19.82V44.17C58 45.8245 57.1127 47.3502 55.6886 48.163L34.278 60.3934C32.8629 61.202 31.1374 61.2022 29.7223 60.3935L8.31774 48.1666C8.31685 48.1661 8.31596 48.1656 8.31507 48.1651Z" fill="#00A88E"/>
<path fill-rule="evenodd" clip-rule="evenodd" d="M32 12.86L16 22V44.91H32V42.91H18V26.29L32 34.29L46 26.29V41V42.91V44.91H48V22L32 12.86ZM27.57 29.46C28.06 28.48 28.67 27.67 29.37 27.09C29.37 27.09 30 26.6 29.21 25.93C28.04 24.94 26.65 20.57 30.38 20.57C31.17 20.57 31.86 21.12 32 21.24C32.14 21.12 32.83 20.57 33.62 20.57C37.35 20.57 35.96 24.94 34.79 25.93C34 26.6 34.62 27.09 34.62 27.09C35.33 27.67 35.94 28.49 36.42 29.46L32 31.99L27.57 29.46ZM46 23.99L37.98 28.57C37.51 27.9 37.17 27.23 36.98 26.79C36.45 25.61 36.63 23.93 36.63 23.93C36.63 23.93 36.69 23.24 36.69 22.88C36.69 20.19 34.57 18 32 18C29.44 18 27.31 20.18 27.31 22.88C27.31 23.24 27.37 23.93 27.37 23.93C27.37 23.93 27.55 25.61 27.02 26.79C26.82 27.24 26.48 27.91 26.01 28.57L18 23.99V23.16L32 15.16L46 23.16V23.99ZM29.92 21.68C29.55 21.68 29.24 21.98 29.24 22.35C29.24 22.72 29.54 23.02 29.92 23.02C30.29 23.02 30.6 22.72 30.6 22.35C30.59 21.98 30.29 21.68 29.92 21.68ZM30.4199 24.25C30.4199 24.29 31.2199 25.99 31.9999 25.99C32.7799 25.99 33.5799 24.28 33.5799 24.25C32.9699 24.15 31.9999 23.33 31.9999 23.33C31.9999 23.33 31.0299 24.15 30.4199 24.25ZM34.0799 21.68C34.4599 21.68 34.7599 21.98 34.7599 22.35C34.7599 22.72 34.4599 23.02 34.0799 23.02C33.6999 23.02 33.3999 22.72 33.3999 22.35C33.3999 21.98 33.7099 21.68 34.0799 21.68ZM34 38.29L39 35.51L44 38.29V44.32C44 46.92 40.77 48.59 39.39 49.18L39 49.35L38.6 49.18C37.52 48.72 34 47.01 34 44.32V38.29ZM36.47 42.23L38.45 44.2L41.99 40.67L41.28 39.96L38.45 42.79L37.18 41.52L36.47 42.23Z" fill="#575756"/>
</svg>
