<svg width="256" height="256" viewBox="0 0 256 256" fill="none" xmlns="http://www.w3.org/2000/svg">
<path d="M16 79.28V176.68C16 186.16 21.08 194.88 29.28 199.6L114.92 248.52C123.04 253.16 132.96 253.16 141.08 248.52L226.72 199.6C234.92 194.92 240 186.16 240 176.68V79.28C240 69.8 234.92 61.08 226.72 56.4L141.08 7.48C132.96 2.84 123.04 2.84 114.92 7.48L29.28 56.4C21.08 61.08 16 69.84 16 79.28Z" fill="#00A88E"/>
<path d="M89.3516 134.359V142.358C91.2369 149.398 94.9184 155.467 99.7266 160.275V152.276C94.9184 147.468 91.2481 141.399 89.3516 134.359Z" fill="#BCBEC0"/>
<path d="M144.552 70.2226C155.384 73.1344 165.279 78.8463 173.222 86.7783V78.7794C165.279 70.8474 155.384 65.1354 144.552 62.2237C134.043 59.4012 122.697 59.1557 111.43 62.179V70.178C122.697 67.1547 134.043 67.3889 144.552 70.2226Z" fill="#AF3F35"/>
<path d="M189.834 107.428C186.822 96.1599 180.932 86.4541 173.234 78.7676V86.7665C180.932 94.453 186.822 104.159 189.834 115.426V107.428Z" fill="#BCBEC0"/>
<path d="M111.429 70.1669V62.168C100.162 65.1801 90.456 71.0705 82.7695 78.7682V86.7672C90.456 79.0695 100.173 73.1902 111.429 70.1669Z" fill="#BCBEC0"/>
<path d="M66.2144 107.45C64.6749 113.173 64.0725 119.677 64.3067 126.226C64.6526 122.567 65.2773 118.963 66.2144 115.449C69.1261 104.617 74.8379 94.7213 82.7697 86.7782V78.7793C74.849 86.7112 69.1372 96.6066 66.2144 107.45Z" fill="#AF3F35"/>
<path d="M189.832 107.428V115.427C190.937 119.554 191.595 123.693 191.863 127.799C192.275 121.116 191.662 114.266 189.832 107.428Z" fill="#AF3F35"/>
<path d="M88.1933 128.178C88.0817 129.338 88.0148 130.509 88.0036 131.681C87.9925 132.852 88.0371 134.035 88.1264 135.217C88.2268 136.4 88.3718 137.593 88.5726 138.776C88.7735 139.97 89.0412 141.163 89.3648 142.346V140.349V138.352V136.355V134.358C89.2197 133.845 89.097 133.332 88.9743 132.819C88.8627 132.305 88.7511 131.781 88.6507 131.279C88.5503 130.766 88.4722 130.242 88.3941 129.74C88.316 129.204 88.2491 128.691 88.1933 128.178Z" fill="#AF3F35"/>
<path d="M167.79 128C167.566 130.097 167.154 132.34 166.618 134.348C164.8 141.12 161.219 147.311 156.266 152.276V160.275C161.219 155.31 164.755 149.118 166.618 142.347C167.857 137.829 168.303 132.909 167.79 128Z" fill="#AF3F35"/>
<path d="M117.655 162.618C110.883 160.8 104.703 157.219 99.7383 152.266V160.264C104.703 165.218 110.883 168.787 117.655 170.617C124.226 172.38 131.31 172.536 138.349 170.65V162.641C131.31 164.537 124.226 164.381 117.655 162.618Z" fill="#AF3F35"/>
<path d="M156.264 152.266C151.456 157.074 145.387 160.755 138.348 162.641V170.639C145.387 168.754 151.456 165.072 156.264 160.264V152.266Z" fill="#BCBEC0"/>
<path d="M89.3515 142.357L66.1582 148.571C69.1815 159.839 75.0607 169.545 82.7583 177.231L99.7154 160.274C94.9183 155.466 91.248 149.397 89.3515 142.357Z" fill="white"/>
<path d="M138.348 170.637L144.562 193.831C155.829 190.808 165.535 184.928 173.221 177.231L156.264 160.273C151.456 165.082 145.398 168.752 138.348 170.637Z" fill="white"/>
<path d="M166.64 121.642L189.822 115.428C186.81 104.16 180.92 94.4541 173.222 86.7676L156.254 103.725C161.073 108.533 164.755 114.602 166.64 121.642Z" fill="white"/>
<path d="M117.643 93.3595L111.429 70.166C100.162 73.1893 90.456 79.0686 82.7695 86.7663L99.7265 103.724C104.535 98.9153 110.604 95.2449 117.643 93.3595Z" fill="white"/>
<path d="M117.654 170.617C110.882 168.798 104.702 165.217 99.7377 160.264L82.7695 177.221C90.7126 185.153 100.608 190.865 111.44 193.777C121.949 196.599 133.295 196.844 144.562 193.821L138.348 170.628C131.309 172.535 124.225 172.379 117.654 170.617Z" fill="#F37043"/>
<path d="M89.3867 121.652C91.2051 114.88 94.775 108.699 99.7282 103.735L82.7712 86.7773C74.8505 94.7205 69.1387 104.616 66.2158 115.449C63.3933 125.958 63.1479 137.304 66.1712 148.571L89.3644 142.357C87.4679 135.318 87.624 128.223 89.3867 121.652Z" fill="#F37043"/>
<path d="M138.35 93.3837C145.121 95.2021 151.313 98.7721 156.266 103.737L173.234 86.7793C165.291 78.8473 155.396 73.1354 144.563 70.2236C134.054 67.4012 122.709 67.1557 111.441 70.179L117.644 93.3614C124.683 91.476 131.779 91.621 138.35 93.3837Z" fill="#F37043"/>
<path d="M189.833 115.426L166.652 121.64C168.537 128.679 168.392 135.774 166.618 142.345C164.8 149.117 161.23 155.298 156.266 160.262L173.234 177.219C181.154 169.276 186.877 159.381 189.789 148.548C192.611 138.05 192.846 126.693 189.833 115.426Z" fill="#F37043"/>
</svg>